<svg xmlns="http://www.w3.org/2000/svg" viewBox="0 0 425.2 192.5"><defs><style>.cls-1{fill:#231815;}.cls-2{fill:none;}</style></defs><g id="レイヤー_2" data-name="レイヤー 2"><g id="レイヤー_1-2" data-name="レイヤー 1"><path class="cls-1" d="M200.57,133.8,228.23,101H201.57V90.35h41.22V101L215.67,133.8h28v11.1H200.57Z"/><path class="cls-1" d="M252.42,90.35h37.06v11.09h-25v10.18h23.65v11.09H264.44V133.8h26.42v11.1H252.42Z"/><path class="cls-1" d="M300.5,90.35h21.11a37.15,37.15,0,0,1,7.89.81,18.78,18.78,0,0,1,6.55,2.7,13.45,13.45,0,0,1,4.47,5.08,17.15,17.15,0,0,1,1.66,8,16,16,0,0,1-3,9.82,13.5,13.5,0,0,1-8.78,5.12l13.87,23H329.85l-11.4-21.8h-5.94v21.8h-12Zm12,22.57h7.09c1.08,0,2.23,0,3.43-.11a11,11,0,0,0,3.28-.69,5.66,5.66,0,0,0,2.42-1.82,5.5,5.5,0,0,0,1-3.46,5.83,5.83,0,0,0-.84-3.32,5.66,5.66,0,0,0-2.16-1.88,9.4,9.4,0,0,0-3-.89,25.39,25.39,0,0,0-3.32-.23h-7.86Z"/><path class="cls-1" d="M347.49,117.62a30.86,30.86,0,0,1,2.2-11.86,26.1,26.1,0,0,1,6.12-9.05A27,27,0,0,1,365.14,91a35.55,35.55,0,0,1,23.57,0A26.78,26.78,0,0,1,398,96.71a25.86,25.86,0,0,1,6.13,9.05,33.1,33.1,0,0,1,0,23.73,25.86,25.86,0,0,1-6.13,9,26.78,26.78,0,0,1-9.32,5.74,35.55,35.55,0,0,1-23.57,0,27,27,0,0,1-9.33-5.74,26.1,26.1,0,0,1-6.12-9A30.88,30.88,0,0,1,347.49,117.62Zm12.48,0a19.91,19.91,0,0,0,1.2,7,16.17,16.17,0,0,0,3.43,5.55,15.55,15.55,0,0,0,5.35,3.66,19.22,19.22,0,0,0,13.95,0,15.55,15.55,0,0,0,5.35-3.66,16.17,16.17,0,0,0,3.43-5.55,21.36,21.36,0,0,0,0-14.06,16.2,16.2,0,0,0-3.43-5.58,15.55,15.55,0,0,0-5.35-3.66,19.22,19.22,0,0,0-13.95,0A15.55,15.55,0,0,0,364.6,105a16.2,16.2,0,0,0-3.43,5.58A20,20,0,0,0,360,117.62Z"/><path class="cls-1" d="M200.83,49.12l10.31,0,7.19,20.17h.09L225.53,49l10.27,0L235.9,80l-6.82,0L229,56.25h-.09l-8,23.76h-5.2l-7.9-23.71h-.09l.08,23.74-6.82,0Z"/><path class="cls-1" d="M240.48,64.47a17.28,17.28,0,0,1,1.23-6.73,14.68,14.68,0,0,1,3.45-5.15,15.35,15.35,0,0,1,5.28-3.28,20.37,20.37,0,0,1,13.38,0,15.29,15.29,0,0,1,5.3,3.24,14.83,14.83,0,0,1,3.49,5.13,18.88,18.88,0,0,1,0,13.46,14.7,14.7,0,0,1-3.46,5.15,15.18,15.18,0,0,1-5.28,3.27,20.17,20.17,0,0,1-13.37,0,15.2,15.2,0,0,1-5.3-3.24,14.65,14.65,0,0,1-3.49-5.12A17.47,17.47,0,0,1,240.48,64.47Zm7.08,0a11.38,11.38,0,0,0,.69,4,9.32,9.32,0,0,0,2,3.14,8.85,8.85,0,0,0,3,2.06,9.88,9.88,0,0,0,4,.73,10,10,0,0,0,4-.75,8.88,8.88,0,0,0,3-2.09,9.07,9.07,0,0,0,1.94-3.15,12.13,12.13,0,0,0,0-8,9.19,9.19,0,0,0-2-3.16,8.91,8.91,0,0,0-3-2.07,10.22,10.22,0,0,0-4-.73,10.06,10.06,0,0,0-4,.76,8.86,8.86,0,0,0-3,2.08,9.16,9.16,0,0,0-1.94,3.18A11.66,11.66,0,0,0,247.56,64.45Z"/><path class="cls-1" d="M278.46,48.88l11.54,0a30.57,30.57,0,0,1,4,.27,11,11,0,0,1,3.66,1.13,7,7,0,0,1,2.63,2.37,7.37,7.37,0,0,1,1,4.06A6.56,6.56,0,0,1,299.9,61,8.1,8.1,0,0,1,296,63.51v.09a8.68,8.68,0,0,1,2.78.84A7.53,7.53,0,0,1,301,66.05a6.81,6.81,0,0,1,1.38,2.29,7.89,7.89,0,0,1,.49,2.8,7.46,7.46,0,0,1-1,4.09,8.27,8.27,0,0,1-2.71,2.65,11.72,11.72,0,0,1-3.73,1.46,20.8,20.8,0,0,1-4.13.45l-12.67,0Zm6.86,12.35,4.94,0a6.77,6.77,0,0,0,1.55-.18,4.31,4.31,0,0,0,1.37-.57,2.94,2.94,0,0,0,1-1.06,3.09,3.09,0,0,0,.37-1.57A2.75,2.75,0,0,0,293,55.26a5.23,5.23,0,0,0-1.49-.5,9.21,9.21,0,0,0-1.62-.15l-4.63,0Zm0,12.8,6.12,0a7.32,7.32,0,0,0,1.59-.18,4.22,4.22,0,0,0,1.46-.61,3.53,3.53,0,0,0,1.07-1.14,3.19,3.19,0,0,0,.41-1.71,2.75,2.75,0,0,0-.55-1.77,3.44,3.44,0,0,0-1.38-1,6.83,6.83,0,0,0-1.79-.47A12.89,12.89,0,0,0,290.5,67l-5.16,0Z"/><path class="cls-1" d="M306.7,48.79l6.82,0,.09,30.95-6.81,0Z"/><path class="cls-1" d="M320,48.74l6.81,0,.08,24.66,12.64,0,0,6.29-19.45.06Z"/><path class="cls-1" d="M343.11,48.67l6.82,0L350,79.6l-6.81,0Z"/><path class="cls-1" d="M362.14,54.65l-8.83,0,0-6,24.48-.08,0,6-8.83,0L369,79.54l-6.82,0Z"/><path class="cls-1" d="M388.89,66.28,377.2,48.56l8.48,0,6.6,11.56,6.91-11.6,8.09,0L395.7,66.25l.05,13.21-6.82,0Z"/><path class="cls-1" d="M182.9,65.84,168.32,51.26l-9,9C148.28,34.56,125,18,99.7,18a59.44,59.44,0,0,0-25.82,5.89c-32,6.6-55.25,37.81-55.25,74.25a83.26,83.26,0,0,0,4.28,26.48L7.36,140.19l14.57,14.58,10.65-10.63C45.49,162.94,65,173.7,86.21,173.7a61.31,61.31,0,0,0,30.05-7.87c29.32-8.52,49.79-38.41,49.79-72.72a85.48,85.48,0,0,0-.58-9.85Zm-35.1,5.94-34.56,34.57-36-36-40.4,40.33A83.15,83.15,0,0,1,35,93.11c0-29.53,15.47-56,39.41-67.61C106,19.11,136.7,39.3,147.8,71.78ZM99.7,166.54c-22.51,0-43-12.92-54.91-34.59L77.27,99.52l36,36L152.13,96.6c0,.53,0,1.05,0,1.58,0,28.19-14,53.51-36.53,66.12A57.59,57.59,0,0,1,99.7,166.54Z"/><rect class="cls-2" width="425.2" height="192.5"/></g></g></svg>